<mxfile host="app.diagrams.net" modified="2024-02-17T14:59:34.764Z" agent="Mozilla/5.0 (Macintosh; Intel Mac OS X 10_15_7) AppleWebKit/537.36 (KHTML, like Gecko) Chrome/116.0.0.0 Safari/537.36" etag="kxB_zzergsEnGWxpEjXW" version="23.1.2" type="device">
  <diagram name="Page-1" id="HEBX5sutdUYssZjtsx-v">
    <mxGraphModel dx="1706" dy="1034" grid="1" gridSize="10" guides="1" tooltips="1" connect="1" arrows="1" fold="1" page="1" pageScale="1" pageWidth="827" pageHeight="1169" math="0" shadow="0">
      <root>
        <mxCell id="0" />
        <mxCell id="1" parent="0" />
        <mxCell id="8BuQOBPp0OQaVyb2lasJ-35" value="" style="rounded=0;whiteSpace=wrap;html=1;" vertex="1" parent="1">
          <mxGeometry width="1400" height="400" as="geometry" />
        </mxCell>
        <mxCell id="8BuQOBPp0OQaVyb2lasJ-9" value="&lt;font style=&quot;font-size: 14px;&quot;&gt;ClusterIP&lt;br&gt;Service&lt;/font&gt;" style="rounded=0;whiteSpace=wrap;html=1;fillColor=#fff2cc;strokeColor=#d6b656;" vertex="1" parent="1">
          <mxGeometry x="1000" y="120" width="120" height="80" as="geometry" />
        </mxCell>
        <mxCell id="8BuQOBPp0OQaVyb2lasJ-16" style="edgeStyle=orthogonalEdgeStyle;rounded=0;orthogonalLoop=1;jettySize=auto;html=1;exitX=0.5;exitY=0;exitDx=0;exitDy=0;entryX=0.5;entryY=1;entryDx=0;entryDy=0;strokeWidth=2;" edge="1" parent="1" source="8BuQOBPp0OQaVyb2lasJ-10" target="8BuQOBPp0OQaVyb2lasJ-15">
          <mxGeometry relative="1" as="geometry" />
        </mxCell>
        <mxCell id="8BuQOBPp0OQaVyb2lasJ-10" value="&lt;span style=&quot;font-size: 14px;&quot;&gt;Deployment&lt;/span&gt;" style="rounded=0;whiteSpace=wrap;html=1;fillColor=#dae8fc;strokeColor=#6c8ebf;" vertex="1" parent="1">
          <mxGeometry x="1120" y="120" width="240" height="40" as="geometry" />
        </mxCell>
        <mxCell id="8BuQOBPp0OQaVyb2lasJ-11" value="&lt;span style=&quot;font-size: 14px;&quot;&gt;Postgres Pod&lt;/span&gt;" style="rounded=0;whiteSpace=wrap;html=1;fillColor=#f5f5f5;fontColor=#333333;strokeColor=#666666;" vertex="1" parent="1">
          <mxGeometry x="1120" y="160" width="240" height="40" as="geometry" />
        </mxCell>
        <mxCell id="8BuQOBPp0OQaVyb2lasJ-12" value="&lt;font style=&quot;font-size: 14px;&quot;&gt;ClusterIP&lt;br&gt;Service&lt;/font&gt;" style="rounded=0;whiteSpace=wrap;html=1;fillColor=#fff2cc;strokeColor=#d6b656;" vertex="1" parent="1">
          <mxGeometry x="1000" y="280" width="120" height="80" as="geometry" />
        </mxCell>
        <mxCell id="8BuQOBPp0OQaVyb2lasJ-13" value="&lt;span style=&quot;font-size: 14px;&quot;&gt;Deployment&lt;/span&gt;" style="rounded=0;whiteSpace=wrap;html=1;fillColor=#dae8fc;strokeColor=#6c8ebf;" vertex="1" parent="1">
          <mxGeometry x="1120" y="280" width="240" height="40" as="geometry" />
        </mxCell>
        <mxCell id="8BuQOBPp0OQaVyb2lasJ-14" value="&lt;span style=&quot;font-size: 14px;&quot;&gt;Redis Pod&lt;/span&gt;" style="rounded=0;whiteSpace=wrap;html=1;fillColor=#f5f5f5;fontColor=#333333;strokeColor=#666666;" vertex="1" parent="1">
          <mxGeometry x="1120" y="320" width="240" height="40" as="geometry" />
        </mxCell>
        <mxCell id="8BuQOBPp0OQaVyb2lasJ-15" value="&lt;span style=&quot;font-size: 14px;&quot;&gt;Postgres PVC&lt;/span&gt;" style="rounded=0;whiteSpace=wrap;html=1;fillColor=#d5e8d4;strokeColor=#82b366;" vertex="1" parent="1">
          <mxGeometry x="1120" y="40" width="240" height="40" as="geometry" />
        </mxCell>
        <mxCell id="8BuQOBPp0OQaVyb2lasJ-22" value="&lt;font size=&quot;1&quot; style=&quot;&quot;&gt;&lt;b style=&quot;font-size: 20px;&quot;&gt;Node&lt;/b&gt;&lt;/font&gt;" style="text;html=1;strokeColor=none;fillColor=none;align=center;verticalAlign=middle;whiteSpace=wrap;rounded=0;" vertex="1" parent="1">
          <mxGeometry x="670" y="10" width="60" height="30" as="geometry" />
        </mxCell>
        <mxCell id="8BuQOBPp0OQaVyb2lasJ-23" value="&lt;font style=&quot;font-size: 14px;&quot;&gt;ClusterIP&lt;br&gt;Service&lt;/font&gt;" style="rounded=0;whiteSpace=wrap;html=1;fillColor=#fff2cc;strokeColor=#d6b656;" vertex="1" parent="1">
          <mxGeometry x="520" y="120" width="120" height="80" as="geometry" />
        </mxCell>
        <mxCell id="8BuQOBPp0OQaVyb2lasJ-24" value="&lt;span style=&quot;font-size: 14px;&quot;&gt;Deployment&lt;/span&gt;" style="rounded=0;whiteSpace=wrap;html=1;fillColor=#dae8fc;strokeColor=#6c8ebf;" vertex="1" parent="1">
          <mxGeometry x="640" y="120" width="240" height="40" as="geometry" />
        </mxCell>
        <mxCell id="8BuQOBPp0OQaVyb2lasJ-38" style="edgeStyle=orthogonalEdgeStyle;rounded=0;orthogonalLoop=1;jettySize=auto;html=1;exitX=1;exitY=0.5;exitDx=0;exitDy=0;strokeWidth=2;" edge="1" parent="1" source="8BuQOBPp0OQaVyb2lasJ-25" target="8BuQOBPp0OQaVyb2lasJ-9">
          <mxGeometry relative="1" as="geometry" />
        </mxCell>
        <mxCell id="8BuQOBPp0OQaVyb2lasJ-41" style="edgeStyle=orthogonalEdgeStyle;rounded=0;orthogonalLoop=1;jettySize=auto;html=1;exitX=1;exitY=0.5;exitDx=0;exitDy=0;entryX=0.5;entryY=0;entryDx=0;entryDy=0;strokeWidth=2;" edge="1" parent="1" source="8BuQOBPp0OQaVyb2lasJ-25" target="8BuQOBPp0OQaVyb2lasJ-12">
          <mxGeometry relative="1" as="geometry">
            <Array as="points">
              <mxPoint x="940" y="180" />
              <mxPoint x="940" y="240" />
              <mxPoint x="1060" y="240" />
            </Array>
          </mxGeometry>
        </mxCell>
        <mxCell id="8BuQOBPp0OQaVyb2lasJ-25" value="&lt;span style=&quot;font-size: 14px;&quot;&gt;(FastAPI) REST API Pod&lt;/span&gt;" style="rounded=0;whiteSpace=wrap;html=1;fillColor=#f5f5f5;fontColor=#333333;strokeColor=#666666;" vertex="1" parent="1">
          <mxGeometry x="640" y="160" width="240" height="40" as="geometry" />
        </mxCell>
        <mxCell id="8BuQOBPp0OQaVyb2lasJ-26" value="&lt;font style=&quot;font-size: 14px;&quot;&gt;ClusterIP&lt;br&gt;Service&lt;/font&gt;" style="rounded=0;whiteSpace=wrap;html=1;fillColor=#fff2cc;strokeColor=#d6b656;" vertex="1" parent="1">
          <mxGeometry x="520" y="280" width="120" height="80" as="geometry" />
        </mxCell>
        <mxCell id="8BuQOBPp0OQaVyb2lasJ-27" value="&lt;span style=&quot;font-size: 14px;&quot;&gt;Deployment&lt;/span&gt;" style="rounded=0;whiteSpace=wrap;html=1;fillColor=#dae8fc;strokeColor=#6c8ebf;" vertex="1" parent="1">
          <mxGeometry x="640" y="280" width="240" height="40" as="geometry" />
        </mxCell>
        <mxCell id="8BuQOBPp0OQaVyb2lasJ-39" style="edgeStyle=orthogonalEdgeStyle;rounded=0;orthogonalLoop=1;jettySize=auto;html=1;exitX=1;exitY=0.5;exitDx=0;exitDy=0;entryX=0;entryY=0.5;entryDx=0;entryDy=0;strokeWidth=2;" edge="1" parent="1" source="8BuQOBPp0OQaVyb2lasJ-28" target="8BuQOBPp0OQaVyb2lasJ-12">
          <mxGeometry relative="1" as="geometry" />
        </mxCell>
        <mxCell id="8BuQOBPp0OQaVyb2lasJ-28" value="&lt;span style=&quot;font-size: 14px;&quot;&gt;(Express) REST API Pod&lt;/span&gt;" style="rounded=0;whiteSpace=wrap;html=1;fillColor=#f5f5f5;fontColor=#333333;strokeColor=#666666;" vertex="1" parent="1">
          <mxGeometry x="640" y="320" width="240" height="40" as="geometry" />
        </mxCell>
        <mxCell id="8BuQOBPp0OQaVyb2lasJ-32" value="&lt;span style=&quot;font-size: 14px;&quot;&gt;LoadBalancer&lt;br&gt;&lt;/span&gt;Service" style="rounded=0;whiteSpace=wrap;html=1;fillColor=#fff2cc;strokeColor=#d6b656;" vertex="1" parent="1">
          <mxGeometry x="40" y="200" width="119" height="80" as="geometry" />
        </mxCell>
        <mxCell id="8BuQOBPp0OQaVyb2lasJ-33" value="&lt;span style=&quot;font-size: 14px;&quot;&gt;Deployment&lt;/span&gt;" style="rounded=0;whiteSpace=wrap;html=1;fillColor=#dae8fc;strokeColor=#6c8ebf;" vertex="1" parent="1">
          <mxGeometry x="159" y="200" width="240" height="40" as="geometry" />
        </mxCell>
        <mxCell id="8BuQOBPp0OQaVyb2lasJ-36" style="edgeStyle=orthogonalEdgeStyle;rounded=0;orthogonalLoop=1;jettySize=auto;html=1;exitX=1;exitY=0.5;exitDx=0;exitDy=0;strokeWidth=2;" edge="1" parent="1" source="8BuQOBPp0OQaVyb2lasJ-34" target="8BuQOBPp0OQaVyb2lasJ-26">
          <mxGeometry relative="1" as="geometry" />
        </mxCell>
        <mxCell id="8BuQOBPp0OQaVyb2lasJ-37" style="edgeStyle=orthogonalEdgeStyle;rounded=0;orthogonalLoop=1;jettySize=auto;html=1;exitX=1;exitY=0.5;exitDx=0;exitDy=0;entryX=0;entryY=0.5;entryDx=0;entryDy=0;strokeWidth=2;" edge="1" parent="1" source="8BuQOBPp0OQaVyb2lasJ-34" target="8BuQOBPp0OQaVyb2lasJ-23">
          <mxGeometry relative="1" as="geometry" />
        </mxCell>
        <mxCell id="8BuQOBPp0OQaVyb2lasJ-34" value="&lt;span style=&quot;font-size: 14px;&quot;&gt;NginX Pod&lt;/span&gt;" style="rounded=0;whiteSpace=wrap;html=1;fillColor=#f5f5f5;fontColor=#333333;strokeColor=#666666;" vertex="1" parent="1">
          <mxGeometry x="159" y="240" width="240" height="40" as="geometry" />
        </mxCell>
      </root>
    </mxGraphModel>
  </diagram>
</mxfile>
